<svg width="960" height="741" viewBox="0 0 960 741" fill="none" xmlns="http://www.w3.org/2000/svg">
<path d="M858.318 543.182L934.354 499.282V587.081L858.318 543.182Z" fill="#7C3AED"/>
<path d="M703.711 543.182L779.747 499.282V587.081L703.711 543.182Z" fill="#22C55E"/>
<path d="M781.003 499.283L857.039 543.183L781.003 587.082L781.003 499.283Z" fill="#16A34A"/>
<path d="M781.002 589.263L781.002 677.062L857.038 633.163L781.002 589.263Z" fill="#4C1D95"/>
<path d="M857.051 633.155L781.014 677.055L857.051 720.954L857.051 633.155Z" fill="#4C1D95"/>
<path d="M858.33 720.956L934.366 677.056L858.33 633.157L858.33 720.956Z" fill="#C03221"/>
<path d="M858.329 633.158L934.365 677.057L934.365 589.258L858.329 633.158Z" fill="#C03221"/>
<path d="M857.685 544.462L933.722 588.361L857.685 632.261L857.685 544.462Z" fill="#EDAE49"/>
<path d="M781.648 588.36L857.684 544.46V632.259L781.648 588.36Z" fill="#EDAE49"/>
<path d="M781.635 409.306L857.671 453.206V365.407L781.635 409.306Z" fill="#16A34A"/>
<path d="M857.67 365.407L857.67 453.206L933.706 409.306L857.67 365.407Z" fill="#16A34A"/>
<path d="M781.013 410.239L781.013 498.038L857.05 454.138L781.013 410.239Z" fill="#166534"/>
<path d="M857.062 454.131L781.026 498.03L857.062 541.93L857.062 454.131Z" fill="#166534"/>
<path d="M858.33 541.915L934.366 498.016L858.33 454.116L858.33 541.915Z" fill="#4C1D95"/>
<path d="M858.329 454.118L934.365 498.017L934.365 410.218L858.329 454.118Z" fill="#4C1D95"/>
<path d="M549.104 543.182L473.068 499.282V587.081L549.104 543.182Z" fill="#7C3AED"/>
<path d="M703.711 543.181L627.675 499.282V587.081L703.711 543.181Z" fill="#22C55E"/>
<path d="M626.419 499.283L550.382 543.183L626.419 587.082L626.419 499.283Z" fill="#16A34A"/>
<path d="M549.092 633.158L473.056 677.057L473.056 589.258L549.092 633.158Z" fill="#C03221"/>
<path d="M549.092 720.956L473.056 677.056L549.092 633.157L549.092 720.956Z" fill="#C03221"/>
<path d="M549.736 544.462L473.7 588.361L549.736 632.261L549.736 544.462Z" fill="#EDAE49"/>
<path d="M625.774 588.36L549.737 544.46V632.259L625.774 588.36Z" fill="#EDAE49"/>
<path d="M626.42 589.263L626.42 677.062L550.383 633.163L626.42 589.263Z" fill="#4C1D95"/>
<path d="M550.371 633.155L626.407 677.055L550.371 720.954L550.371 633.155Z" fill="#4C1D95"/>
<path d="M549.092 541.915L473.056 498.016L549.092 454.116L549.092 541.915Z" fill="#4C1D95"/>
<path d="M549.092 454.118L473.056 498.017L473.056 410.218L549.092 454.118Z" fill="#4C1D95"/>
<path d="M626.408 410.239L626.408 498.038L550.372 454.138L626.408 410.239Z" fill="#166534"/>
<path d="M550.36 454.131L626.396 498.03L550.36 541.93L550.36 454.131Z" fill="#166534"/>
<path d="M625.786 409.306L549.75 453.205V365.406L625.786 409.306Z" fill="#16A34A"/>
<path d="M549.751 365.406L549.751 453.205L473.715 409.306L549.751 365.406Z" fill="#16A34A"/>
<path d="M273.811 402.956L197.775 359.056L273.811 315.157L273.811 402.956Z" fill="#22C55E"/>
<path d="M566.06 55.8013L528.56 34.1506L566.06 12.5L566.06 55.8013Z" fill="#22C55E"/>
<path d="M590.179 216.77L612.903 301.577L674.987 239.494L590.179 216.77Z" fill="#C03221"/>
<path d="M17.6777 425.268L28.8849 467.094L59.5035 436.475L17.6777 425.268Z" fill="#C03221"/>
<path d="M430.365 746.402L342.566 746.402L386.466 670.366L430.365 746.402Z" fill="#7C3AED"/>
<path d="M889.156 59.0563L813.12 102.956V15.1568L889.156 59.0563Z" fill="#7C3AED"/>
<path d="M883.674 296.402L959.711 340.301V252.502L883.674 296.402Z" fill="#EDAE49"/>
<path d="M91.8097 586.519L114.534 671.326L176.617 609.243L91.8097 586.519Z" fill="#EDAE49"/>
<path d="M384.724 197.664L359.724 240.965H409.724L384.724 197.664Z" fill="#EDAE49"/>
<path d="M485.72 381.801L508.22 368.811L485.72 355.821L485.72 381.801Z" fill="#16A34A"/>
<path d="M485.72 734.801L508.22 721.811L485.72 708.821L485.72 734.801Z" fill="#16A34A"/>
<path d="M432.711 543.301L455.211 556.292V530.311L432.711 543.301Z" fill="#16A34A"/>
<path d="M747.711 453.301L770.211 466.292V440.311L747.711 453.301Z" fill="#16A34A"/>
<path d="M893.711 369.301L916.211 382.292V356.311L893.711 369.301Z" fill="#16A34A"/>
</svg>
