<svg width="960" height="747" viewBox="0 0 960 747" fill="none" xmlns="http://www.w3.org/2000/svg">
<path d="M410.607 203.121L486.643 159.221V247.02L410.607 203.121Z" fill="#7C3AED"/>
<path d="M256 203.121L332.036 159.221V247.02L256 203.121Z" fill="#22C55E"/>
<path d="M333.292 159.222L409.328 203.122L333.292 247.021L333.292 159.222Z" fill="#16A34A"/>
<path d="M333.291 249.202L333.291 337.001L409.327 293.102L333.291 249.202Z" fill="#4C1D95"/>
<path d="M409.34 293.094L333.304 336.994L409.34 380.893L409.34 293.094Z" fill="#4C1D95"/>
<path d="M410.619 380.895L486.655 336.995L410.619 293.096L410.619 380.895Z" fill="#C03221"/>
<path d="M410.618 293.097L486.655 336.996L486.655 249.197L410.618 293.097Z" fill="#C03221"/>
<path d="M409.975 204.401L486.011 248.3L409.975 292.2L409.975 204.401Z" fill="#EDAE49"/>
<path d="M333.937 248.299L409.973 204.399V292.198L333.937 248.299Z" fill="#EDAE49"/>
<path d="M333.924 69.245L409.961 113.145V25.3455L333.924 69.245Z" fill="#16A34A"/>
<path d="M409.959 25.3454L409.959 113.144L485.996 69.2449L409.959 25.3454Z" fill="#16A34A"/>
<path d="M333.303 70.1777L333.303 157.977L409.339 114.077L333.303 70.1777Z" fill="#166534"/>
<path d="M409.351 114.07L333.315 157.969L409.351 201.869L409.351 114.07Z" fill="#166534"/>
<path d="M410.619 201.854L486.655 157.955L410.619 114.055L410.619 201.854Z" fill="#4C1D95"/>
<path d="M410.618 114.057L486.655 157.956L486.655 70.157L410.618 114.057Z" fill="#4C1D95"/>
<path d="M101.393 203.12L25.3569 159.221L25.3569 247.02L101.393 203.12Z" fill="#7C3AED"/>
<path d="M256 203.12L179.964 159.221V247.02L256 203.12Z" fill="#22C55E"/>
<path d="M178.708 159.222L102.672 203.122L178.708 247.021L178.708 159.222Z" fill="#16A34A"/>
<path d="M101.382 293.097L25.3454 336.996L25.3454 249.197L101.382 293.097Z" fill="#C03221"/>
<path d="M101.381 380.895L25.3449 336.995L101.381 293.096L101.381 380.895Z" fill="#C03221"/>
<path d="M102.025 204.401L25.9892 248.3L102.025 292.2L102.025 204.401Z" fill="#EDAE49"/>
<path d="M178.063 248.299L102.027 204.399V292.198L178.063 248.299Z" fill="#EDAE49"/>
<path d="M178.709 249.202L178.709 337.001L102.673 293.102L178.709 249.202Z" fill="#4C1D95"/>
<path d="M102.66 293.094L178.696 336.994L102.66 380.893L102.66 293.094Z" fill="#4C1D95"/>
<path d="M101.381 201.854L25.3449 157.955L101.381 114.055L101.381 201.854Z" fill="#4C1D95"/>
<path d="M101.382 114.057L25.3455 157.956L25.3455 70.157L101.382 114.057Z" fill="#4C1D95"/>
<path d="M178.697 70.1777L178.697 157.977L102.661 114.077L178.697 70.1777Z" fill="#166534"/>
<path d="M102.649 114.07L178.685 157.969L102.649 201.869L102.649 114.07Z" fill="#166534"/>
<path d="M178.076 69.245L102.039 113.145V25.3455L178.076 69.245Z" fill="#16A34A"/>
<path d="M102.041 25.3454L102.041 113.144L26.0045 69.2449L102.041 25.3454Z" fill="#16A34A"/>
<path d="M685.9 343.345L761.936 387.245L685.9 431.144L685.9 343.345Z" fill="#22C55E"/>
<path d="M393.651 690.5L431.151 712.151L393.651 733.801L393.651 690.5Z" fill="#22C55E"/>
<path d="M369.531 529.531L346.807 444.724L284.724 506.807L369.531 529.531Z" fill="#C03221"/>
<path d="M942.033 321.033L930.826 279.207L900.207 309.826L942.033 321.033Z" fill="#C03221"/>
<path d="M529.345 -0.10048L617.145 -0.100565L573.245 75.9357L529.345 -0.10048Z" fill="#7C3AED"/>
<path d="M70.5542 687.245L146.59 643.345V731.144L70.5542 687.245Z" fill="#7C3AED"/>
<path d="M76.0363 449.9L-5.72205e-06 406V493.799L76.0363 449.9Z" fill="#EDAE49"/>
<path d="M867.901 159.782L845.177 74.9749L783.094 137.058L867.901 159.782Z" fill="#EDAE49"/>
<path d="M574.987 548.638L599.987 505.336H549.987L574.987 548.638Z" fill="#EDAE49"/>
<path d="M473.99 364.5L451.49 377.49L473.99 390.481L473.99 364.5Z" fill="#16A34A"/>
<path d="M473.99 11.5L451.49 24.4904L473.99 37.4808L473.99 11.5Z" fill="#16A34A"/>
<path d="M527 203L504.5 190.01V215.99L527 203Z" fill="#16A34A"/>
<path d="M212 293L189.5 280.01V305.99L212 293Z" fill="#16A34A"/>
<path d="M66 377L43.5 364.01V389.99L66 377Z" fill="#16A34A"/>
</svg>
